<svg xmlns="http://www.w3.org/2000/svg" width="41" height="40" fill="none" viewBox="0 0 41 40"><path fill="#3f39e8" fill-rule="evenodd" d="M40.1906 19.6373C40.1906 30.4808 31.3968 39.2746 20.5533 39.2746C9.70759 39.2746 0.916016 30.4819 0.916016 19.6373C0.916016 8.79268 9.70759 0 20.5533 0C31.3968 0 40.1906 8.79376 40.1906 19.6373Z" clip-rule="evenodd"/><path fill="#fff" fill-rule="evenodd" d="M18.3462 25.0043L28.0077 12.714C28.5662 12.0035 29.595 11.8803 30.3055 12.4389C31.0161 12.9974 31.1393 14.0262 30.5807 14.7367L19.8563 28.3792C19.278 29.1148 18.2017 29.2166 17.4957 28.6025L11.2968 23.2097C10.6149 22.6165 10.543 21.5829 11.1362 20.901C11.7294 20.2192 12.763 20.1473 13.4449 20.7405L18.3462 25.0043Z" clip-rule="evenodd"/></svg>