<svg xmlns="http://www.w3.org/2000/svg" width="202" height="147" fill="none" viewBox="0 0 202 147"><path fill="#E9EEFF" d="M1 8.5C1 4.63401 4.13401 1.5 8 1.5H194C197.866 1.5 201 4.63401 201 8.5V138.5C201 142.366 197.866 145.5 194 145.5H8C4.13401 145.5 1 142.366 1 138.5V8.5Z"/><path stroke="#3F39E8" stroke-width="2" d="M1 8.5C1 4.63401 4.13401 1.5 8 1.5H194C197.866 1.5 201 4.63401 201 8.5V138.5C201 142.366 197.866 145.5 194 145.5H8C4.13401 145.5 1 142.366 1 138.5V8.5Z"/><g filter="url(#filter0_dd_1_9590)"><rect width="137" height="113" x="32.5" y="17" fill="#fff" stroke="#3F4E55" rx="7.5"/><rect width="34" height="40" x="43" y="51" fill="#E9EEFF" rx="4"/><rect width="77" height="7" x="84" y="51" fill="#D5DCFF" rx="3.5"/><rect width="77" height="7" x="84" y="61" fill="#E9EEFF" rx="3.5"/><rect width="34" height="22" x="43" y="94" fill="#D5DCFF" rx="4"/><rect width="77" height="44" x="84" y="72" fill="#D5DCFF" rx="4"/><circle cx="101" cy="82" r="26.5" fill="#fff" stroke="#3F4E55"/><path fill="url(#paint0_linear_1_9590)" fill-rule="evenodd" d="M85.6154 80.718C84.9074 80.718 84.3334 81.292 84.3334 82C84.3334 91.2048 91.7953 98.6667 101 98.6667C110.205 98.6667 117.667 91.2048 117.667 82C117.667 72.7953 110.205 65.3334 101 65.3334C97.0957 65.3334 93.4135 66.6856 90.4926 69.0608C89.941 68.8078 89.3273 68.6667 88.6804 68.6667C86.279 68.6667 84.3334 70.6136 84.3334 73.0145C84.3334 75.4155 86.279 77.3624 88.6804 77.3624C91.0834 77.3624 93.029 75.4155 93.029 73.0145C93.029 72.2066 92.8087 71.45 92.4248 70.8018C94.8434 68.9465 97.8344 67.8975 101 67.8975C108.789 67.8975 115.103 74.2114 115.103 82C115.103 89.7887 108.789 96.1026 101 96.1026C93.2114 96.1026 86.8975 89.7887 86.8975 82C86.8975 81.292 86.3235 80.718 85.6154 80.718ZM109.974 82H103.221C102.996 81.6108 102.671 81.2862 102.282 81.061V75.5898C102.282 74.8817 101.708 74.3077 101 74.3077C100.292 74.3077 99.718 74.8817 99.718 75.5898V81.061C98.9515 81.5043 98.4359 82.333 98.4359 83.2821C98.4359 84.6982 99.5839 85.8462 101 85.8462C101.949 85.8462 102.778 85.3306 103.221 84.5641H109.974C110.682 84.5641 111.256 83.9902 111.256 83.2821C111.256 82.574 110.682 82 109.974 82Z" clip-rule="evenodd"/><path fill="#F3F5F7" stroke="#3F4E55" d="M32.5 29.46C32.5 27.1357 32.5004 25.4236 32.6145 24.0721C32.728 22.7267 32.9514 21.7844 33.3718 20.9905C34.0753 19.6618 35.1618 18.5753 36.4905 17.8718C37.2844 17.4514 38.2267 17.228 39.5721 17.1145C40.9236 17.0004 42.6357 17 44.96 17H157.04C159.364 17 161.076 17.0004 162.428 17.1145C163.773 17.228 164.716 17.4514 165.509 17.8718C166.838 18.5753 167.925 19.6618 168.628 20.9905C169.049 21.7844 169.272 22.7267 169.386 24.0721C169.5 25.4236 169.5 27.1357 169.5 29.46V36H32.5V29.46Z"/><rect width="39" height="11" x="74.5" y="21" fill="#fff" stroke="#3F4E55" rx="3.5"/><circle cx="44" cy="26.5" r="2.5" stroke="#3F4E55"/><circle cx="54" cy="26.5" r="2.5" stroke="#3F4E55"/><circle cx="64" cy="26.5" r="2.5" stroke="#3F4E55"/><path fill="#3F39E8" fill-rule="evenodd" d="M136.667 36.5C136.667 29.1362 142.636 23.1666 150 23.1666C157.364 23.1666 163.333 29.1362 163.333 36.5C163.333 43.8638 157.364 49.8333 150 49.8333C142.636 49.8333 136.667 43.8638 136.667 36.5ZM154.937 34.0192C155.266 33.5582 155.16 32.9177 154.699 32.5884C154.238 32.2592 153.597 32.366 153.268 32.8269L148.843 39.0212L146.623 36.8004C146.222 36.3998 145.573 36.3998 145.172 36.8004C144.772 37.2009 144.772 37.8503 145.172 38.2508L148.249 41.3278C148.462 41.5409 148.758 41.6495 149.059 41.6247C149.359 41.5998 149.634 41.444 149.809 41.1987L154.937 34.0192Z" clip-rule="evenodd"/><path fill="#fff" fill-rule="evenodd" d="M154.937 34.0192C155.266 33.5583 155.16 32.9177 154.699 32.5885C154.238 32.2592 153.597 32.366 153.268 32.8269L148.844 39.0212L146.623 36.8004C146.222 36.3998 145.573 36.3998 145.172 36.8004C144.772 37.2009 144.772 37.8503 145.172 38.2509L148.249 41.3278C148.462 41.541 148.759 41.6496 149.059 41.6247C149.359 41.5998 149.634 41.444 149.809 41.1987L154.937 34.0192Z" clip-rule="evenodd"/></g><defs><filter id="filter0_dd_1_9590" width="152" height="128" x="25" y="13.5" color-interpolation-filters="sRGB" filterUnits="userSpaceOnUse"><feFlood flood-opacity="0" result="BackgroundImageFix"/><feColorMatrix in="SourceAlpha" result="hardAlpha" type="matrix" values="0 0 0 0 0 0 0 0 0 0 0 0 0 0 0 0 0 0 127 0"/><feMorphology in="SourceAlpha" operator="erode" radius="1" result="effect1_dropShadow_1_9590"/><feOffset dy="4"/><feGaussianBlur stdDeviation="4"/><feComposite in2="hardAlpha" operator="out"/><feColorMatrix type="matrix" values="0 0 0 0 0 0 0 0 0 0 0 0 0 0 0 0 0 0 0.1 0"/><feBlend in2="BackgroundImageFix" mode="normal" result="effect1_dropShadow_1_9590"/><feColorMatrix in="SourceAlpha" result="hardAlpha" type="matrix" values="0 0 0 0 0 0 0 0 0 0 0 0 0 0 0 0 0 0 127 0"/><feOffset dy="1"/><feComposite in2="hardAlpha" operator="out"/><feColorMatrix type="matrix" values="0 0 0 0 0 0 0 0 0 0 0 0 0 0 0 0 0 0 0.05 0"/><feBlend in2="effect1_dropShadow_1_9590" mode="normal" result="effect2_dropShadow_1_9590"/><feBlend in="SourceGraphic" in2="effect2_dropShadow_1_9590" mode="normal" result="shape"/></filter><linearGradient id="paint0_linear_1_9590" x1="115.935" x2="84.302" y1="96.363" y2="65.365" gradientUnits="userSpaceOnUse"><stop offset=".026" stop-color="#FA7250"/><stop offset=".401" stop-color="#FF1893"/><stop offset=".995" stop-color="#A78AFF"/></linearGradient></defs></svg>