<svg xmlns="http://www.w3.org/2000/svg" width="140" height="140" fill="none" viewBox="0 0 140 140"><path fill="#737ADE" d="M140 70C140 108.66 108.66 140 70 140C31.3401 140 0 108.66 0 70C0 31.3401 31.3401 0 70 0C108.66 0 140 31.3401 140 70ZM8.8978 70C8.8978 103.746 36.2542 131.102 70 131.102C103.746 131.102 131.102 103.746 131.102 70C131.102 36.2542 103.746 8.8978 70 8.8978C36.2542 8.8978 8.8978 36.2542 8.8978 70Z"/><path stroke="#737ADE" stroke-linecap="round" stroke-linejoin="round" stroke-width="6.556" d="M69.6823 94.8906V45.1128M69.6823 45.1128L51.0156 63.7111M69.6823 45.1128L88.349 63.7111"/></svg>