<svg xmlns="http://www.w3.org/2000/svg" xmlns:xlink="http://www.w3.org/1999/xlink" fill="#fff" fill-rule="evenodd" stroke="#000" stroke-linecap="round" stroke-linejoin="round" viewBox="0 0 53 66"><use x=".5" y=".5" xlink:href="#A"/><symbol id="A" overflow="visible"><g fill-rule="nonzero" stroke="none"><path fill="#a9caff" d="M32.34 32h19.335L41.219 57.9c-1.5 3.683-5.033 6.1-8.966 6.1H12.917l10.455-25.838c1.5-3.683 5.033-6.17 8.967-6.17"/><path fill="#0408e0" d="M18.597 49.782h10.738c3.933 0 5.186-.157 8.465-3.053l13.85-14.92h-19.3c-3.934 0-7.477 2.485-8.967 6.168z"/><path fill="#0384ff" d="M25.881 16.175h19.336L34.76 41.947c-1.5 3.683-5.033 5.88-8.966 5.88H6.459l10.455-25.63c1.5-3.683 5.033-6.022 8.967-6.022"/><path fill="#0408e0" d="M12.034 34.057H22.89c3.933 0 5.187-.533 8.465-3.428L45.17 16.085H25.881c-3.933 0-7.477 2.333-8.967 6.016z"/><path fill="#004eff" d="M19.421 0h19.336L28.301 25.984c-1.5 3.683-5.033 6-8.966 6H0l10.455-25.76C11.945 2.552 15.487 0 19.421 0"/></g></symbol></svg>